<svg width="267" height="50" viewBox="0 0 267 50" fill="none" xmlns="http://www.w3.org/2000/svg">
<g filter="url(#filter0_d)">
<path d="M24.8785 25.4746C24.6793 28.2285 23.6598 30.3965 21.8199 31.9785C19.9918 33.5605 17.5777 34.3516 14.5777 34.3516C11.2965 34.3516 8.71249 33.25 6.82578 31.0469C4.95078 28.832 4.01328 25.7969 4.01328 21.9414V20.377C4.01328 17.916 4.44687 15.748 5.31406 13.873C6.18124 11.998 7.41757 10.5625 9.02304 9.56641C10.6402 8.55859 12.5152 8.05469 14.648 8.05469C17.6012 8.05469 19.9801 8.8457 21.7848 10.4277C23.5894 12.0098 24.6324 14.2305 24.9137 17.0898H19.6402C19.5113 15.4375 19.0484 14.2422 18.2516 13.5039C17.4664 12.7539 16.2652 12.3789 14.648 12.3789C12.8902 12.3789 11.5719 13.0117 10.693 14.2773C9.82578 15.5312 9.38046 17.4824 9.35703 20.1309V22.0645C9.35703 24.8301 9.77304 26.8516 10.6051 28.1289C11.4488 29.4062 12.773 30.0449 14.5777 30.0449C16.2066 30.0449 17.4195 29.6758 18.2164 28.9375C19.025 28.1875 19.4879 27.0332 19.6051 25.4746H24.8785ZM30.8164 24.3145C30.8164 22.4277 31.1797 20.7461 31.9062 19.2695C32.6328 17.793 33.6758 16.6504 35.0352 15.8418C36.4062 15.0332 37.9941 14.6289 39.7988 14.6289C42.3652 14.6289 44.457 15.4141 46.0742 16.9844C47.7031 18.5547 48.6113 20.6875 48.7988 23.3828L48.834 24.6836C48.834 27.6016 48.0195 29.9453 46.3906 31.7148C44.7617 33.4727 42.5762 34.3516 39.834 34.3516C37.0918 34.3516 34.9004 33.4727 33.2598 31.7148C31.6309 29.957 30.8164 27.5664 30.8164 24.543V24.3145ZM35.8965 24.6836C35.8965 26.4883 36.2363 27.8711 36.916 28.832C37.5957 29.7812 38.5684 30.2559 39.834 30.2559C41.0644 30.2559 42.0254 29.7871 42.7168 28.8496C43.4082 27.9004 43.7539 26.3887 43.7539 24.3145C43.7539 22.5449 43.4082 21.1738 42.7168 20.2012C42.0254 19.2285 41.0527 18.7422 39.7988 18.7422C38.5566 18.7422 37.5957 19.2285 36.916 20.2012C36.2363 21.1621 35.8965 22.6562 35.8965 24.6836ZM54.7719 24.3496C54.7719 21.3848 55.434 19.0234 56.7582 17.2656C58.0941 15.5078 59.9164 14.6289 62.225 14.6289C64.0766 14.6289 65.6059 15.3203 66.8129 16.7031V7H71.9105V34H67.3227L67.0766 31.9785C65.8109 33.5605 64.182 34.3516 62.1898 34.3516C59.9516 34.3516 58.1527 33.4727 56.7934 31.7148C55.4457 29.9453 54.7719 27.4902 54.7719 24.3496ZM59.8519 24.7188C59.8519 26.5 60.1625 27.8652 60.7836 28.8145C61.4047 29.7637 62.307 30.2383 63.4906 30.2383C65.0609 30.2383 66.1684 29.5762 66.8129 28.252V20.7461C66.1801 19.4219 65.0844 18.7598 63.5258 18.7598C61.0766 18.7598 59.8519 20.7461 59.8519 24.7188ZM84.8094 34H79.7117V14.9805H84.8094V34ZM79.4129 10.0586C79.4129 9.29688 79.6648 8.66992 80.1687 8.17773C80.6844 7.68555 81.3816 7.43945 82.2605 7.43945C83.1277 7.43945 83.8191 7.68555 84.3348 8.17773C84.8504 8.66992 85.1082 9.29688 85.1082 10.0586C85.1082 10.832 84.8445 11.4648 84.3172 11.957C83.8016 12.4492 83.116 12.6953 82.2605 12.6953C81.4051 12.6953 80.7137 12.4492 80.1863 11.957C79.6707 11.4648 79.4129 10.832 79.4129 10.0586ZM97.2863 14.9805L97.4445 17.1777C98.8039 15.4785 100.626 14.6289 102.911 14.6289C104.927 14.6289 106.427 15.2207 107.411 16.4043C108.396 17.5879 108.9 19.3574 108.923 21.7129V34H103.843V21.8359C103.843 20.7578 103.609 19.9785 103.14 19.498C102.671 19.0059 101.892 18.7598 100.802 18.7598C99.3723 18.7598 98.3 19.3691 97.5852 20.5879V34H92.5051V14.9805H97.2863ZM115.652 24.3496C115.652 21.4316 116.343 19.082 117.726 17.3008C119.121 15.5195 120.996 14.6289 123.351 14.6289C125.437 14.6289 127.06 15.3438 128.22 16.7734L128.431 14.9805H133.037V33.3672C133.037 35.0312 132.656 36.4785 131.894 37.709C131.144 38.9395 130.084 39.877 128.712 40.5215C127.341 41.166 125.736 41.4883 123.896 41.4883C122.502 41.4883 121.142 41.207 119.818 40.6445C118.494 40.0938 117.492 39.3789 116.812 38.5L119.062 35.4062C120.328 36.8242 121.863 37.5332 123.668 37.5332C125.015 37.5332 126.064 37.1699 126.814 36.4434C127.564 35.7285 127.939 34.709 127.939 33.3848V32.3652C126.767 33.6895 125.226 34.3516 123.316 34.3516C121.031 34.3516 119.179 33.4609 117.761 31.6797C116.355 29.8867 115.652 27.5137 115.652 24.5605V24.3496ZM120.732 24.7188C120.732 26.4414 121.078 27.7949 121.769 28.7793C122.461 29.752 123.41 30.2383 124.617 30.2383C126.164 30.2383 127.271 29.6582 127.939 28.498V20.5C127.259 19.3398 126.164 18.7598 124.652 18.7598C123.433 18.7598 122.472 19.2578 121.769 20.2539C121.078 21.25 120.732 22.7383 120.732 24.7188Z" fill="#222222"/>
<path d="M155.34 28.7266H146.094L144.336 34H138.729L148.256 8.40625H153.143L162.723 34H157.115L155.34 28.7266ZM147.518 24.4551H153.916L150.699 14.875L147.518 24.4551ZM167.588 24.3496C167.588 21.3848 168.25 19.0234 169.575 17.2656C170.911 15.5078 172.733 14.6289 175.041 14.6289C176.893 14.6289 178.422 15.3203 179.629 16.7031V7H184.727V34H180.139L179.893 31.9785C178.627 33.5605 176.998 34.3516 175.006 34.3516C172.768 34.3516 170.969 33.4727 169.61 31.7148C168.262 29.9453 167.588 27.4902 167.588 24.3496ZM172.668 24.7188C172.668 26.5 172.979 27.8652 173.6 28.8145C174.221 29.7637 175.123 30.2383 176.307 30.2383C177.877 30.2383 178.985 29.5762 179.629 28.252V20.7461C178.996 19.4219 177.901 18.7598 176.342 18.7598C173.893 18.7598 172.668 20.7461 172.668 24.7188ZM191.473 24.3496C191.473 21.3848 192.136 19.0234 193.46 17.2656C194.796 15.5078 196.618 14.6289 198.927 14.6289C200.778 14.6289 202.307 15.3203 203.514 16.7031V7H208.612V34H204.024L203.778 31.9785C202.512 33.5605 200.884 34.3516 198.891 34.3516C196.653 34.3516 194.854 33.4727 193.495 31.7148C192.147 29.9453 191.473 27.4902 191.473 24.3496ZM196.554 24.7188C196.554 26.5 196.864 27.8652 197.485 28.8145C198.106 29.7637 199.009 30.2383 200.192 30.2383C201.762 30.2383 202.87 29.5762 203.514 28.252V20.7461C202.882 19.4219 201.786 18.7598 200.227 18.7598C197.778 18.7598 196.554 20.7461 196.554 24.7188ZM221.511 34H216.413V14.9805H221.511V34ZM216.114 10.0586C216.114 9.29688 216.366 8.66992 216.87 8.17773C217.386 7.68555 218.083 7.43945 218.962 7.43945C219.829 7.43945 220.521 7.68555 221.036 8.17773C221.552 8.66992 221.81 9.29688 221.81 10.0586C221.81 10.832 221.546 11.4648 221.019 11.957C220.503 12.4492 219.818 12.6953 218.962 12.6953C218.107 12.6953 217.415 12.4492 216.888 11.957C216.372 11.4648 216.114 10.832 216.114 10.0586ZM237.222 30.2559C238.16 30.2559 238.921 29.998 239.507 29.4824C240.093 28.9668 240.398 28.2812 240.421 27.4258H245.185C245.173 28.7148 244.822 29.8984 244.13 30.9766C243.439 32.043 242.49 32.875 241.283 33.4727C240.087 34.0586 238.763 34.3516 237.31 34.3516C234.591 34.3516 232.447 33.4902 230.877 31.7676C229.306 30.0332 228.521 27.6426 228.521 24.5957V24.2617C228.521 21.332 229.3 18.9941 230.859 17.248C232.418 15.502 234.556 14.6289 237.275 14.6289C239.654 14.6289 241.558 15.3086 242.988 16.668C244.429 18.0156 245.162 19.8145 245.185 22.0645H240.421C240.398 21.0801 240.093 20.2832 239.507 19.6738C238.921 19.0527 238.148 18.7422 237.187 18.7422C236.004 18.7422 235.107 19.1758 234.498 20.043C233.9 20.8984 233.601 22.293 233.601 24.2266V24.7539C233.601 26.7109 233.9 28.1172 234.498 28.9727C235.095 29.8281 236.004 30.2559 237.222 30.2559ZM257.768 10.3047V14.9805H261.02V18.707H257.768V28.1992C257.768 28.9023 257.902 29.4062 258.172 29.7109C258.441 30.0156 258.957 30.168 259.719 30.168C260.281 30.168 260.779 30.127 261.213 30.0449V33.8945C260.217 34.1992 259.191 34.3516 258.137 34.3516C254.574 34.3516 252.758 32.5527 252.688 28.9551V18.707H249.91V14.9805H252.688V10.3047H257.768Z" fill="#645CFF"/>
</g>
<defs>
<filter id="filter0_d" x="0.0132751" y="7" width="265.2" height="42.4883" filterUnits="userSpaceOnUse" color-interpolation-filters="sRGB">
<feFlood flood-opacity="0" result="BackgroundImageFix"/>
<feColorMatrix in="SourceAlpha" type="matrix" values="0 0 0 0 0 0 0 0 0 0 0 0 0 0 0 0 0 0 127 0"/>
<feOffset dy="4"/>
<feGaussianBlur stdDeviation="2"/>
<feColorMatrix type="matrix" values="0 0 0 0 0 0 0 0 0 0 0 0 0 0 0 0 0 0 0.25 0"/>
<feBlend mode="normal" in2="BackgroundImageFix" result="effect1_dropShadow"/>
<feBlend mode="normal" in="SourceGraphic" in2="effect1_dropShadow" result="shape"/>
</filter>
</defs>
</svg>
